BioRhyme-Bold Extended.ufo
<glyph name="numbersign" format="1">
  <advance width="832"/>
  <unicode hex="0023"/>
  <outline>
    <contour>
      <point x="700" y="490" type="line"/>
      <point x="602" y="490" type="line"/>
      <point x="424" y="0" type="line"/>
      <point x="521" y="0" type="line"/>
    </contour>
    <contour>
      <point x="406" y="490" type="line"/>
      <point x="308" y="490" type="line"/>
      <point x="130" y="0" type="line"/>
      <point x="227" y="0" type="line"/>
    </contour>
    <contour>
      <point x="67" y="287" type="line"/>
      <point x="815" y="287" type="line"/>
      <point x="815" y="373" type="line"/>
      <point x="67" y="373" type="line"/>
    </contour>
    <contour>
      <point x="18" y="109" type="line"/>
      <point x="766" y="109" type="line"/>
      <point x="766" y="196" type="line"/>
      <point x="18" y="196" type="line"/>
    </contour>
  </outline>
</glyph>
<glyph name="percent" format="1">
  <advance width="924"/>
  <unicode hex="0025"/>
  <outline>
    <contour>
      <point x="776" y="442" type="line"/>
      <point x="717" y="500" type="line"/>
      <point x="144" y="24" type="line"/>
      <point x="203" y="-34" type="line"/>
    </contour>
    <contour>
      <point x="314" y="232"/>
      <point x="378" y="285"/>
      <point x="378" y="358" type="curve" smooth="yes"/>
      <point x="378" y="436"/>
      <point x="314" y="483"/>
      <point x="214" y="483" type="curve" smooth="yes"/>
      <point x="119" y="483"/>
      <point x="48" y="435"/>
      <point x="48" y="358" type="curve" smooth="yes"/>
      <point x="48" y="284"/>
      <point x="119" y="232"/>
      <point x="214" y="232" type="curve" smooth="yes"/>
    </contour>
    <contour>
      <point x="166" y="317"/>
      <point x="142" y="334"/>
      <point x="142" y="358" type="curve" smooth="yes"/>
      <point x="142" y="384"/>
      <point x="166" y="399"/>
      <point x="214" y="399" type="curve" smooth="yes"/>
      <point x="263" y="399"/>
      <point x="285" y="384"/>
      <point x="285" y="358" type="curve" smooth="yes"/>
      <point x="285" y="334"/>
      <point x="263" y="317"/>
      <point x="214" y="317" type="curve" smooth="yes"/>
    </contour>
    <contour>
      <point x="806" y="-17"/>
      <point x="876" y="31"/>
      <point x="876" y="108" type="curve" smooth="yes"/>
      <point x="876" y="182"/>
      <point x="806" y="234"/>
      <point x="711" y="234" type="curve" smooth="yes"/>
      <point x="611" y="234"/>
      <point x="546" y="181"/>
      <point x="546" y="108" type="curve" smooth="yes"/>
      <point x="546" y="30"/>
      <point x="611" y="-17"/>
      <point x="711" y="-17" type="curve" smooth="yes"/>
    </contour>
    <contour>
      <point x="662" y="67"/>
      <point x="640" y="82"/>
      <point x="640" y="108" type="curve" smooth="yes"/>
      <point x="640" y="132"/>
      <point x="662" y="150"/>
      <point x="711" y="150" type="curve" smooth="yes"/>
      <point x="758" y="150"/>
      <point x="783" y="133"/>
      <point x="783" y="108" type="curve" smooth="yes"/>
      <point x="783" y="83"/>
      <point x="758" y="67"/>
      <point x="711" y="67" type="curve" smooth="yes"/>
    </contour>
  </outline>
</glyph>
<glyph name="zero" format="1">
  <advance width="864"/>
  <unicode hex="0030"/>
  <outline>
    <contour>
      <point x="614" y="-10"/>
      <point x="822" y="55"/>
      <point x="822" y="235" type="curve"/>
      <point x="822" y="409"/>
      <point x="621" y="480"/>
      <point x="432" y="480" type="curve" smooth="yes"/>
      <point x="250" y="480"/>
      <point x="42" y="409"/>
      <point x="42" y="235" type="curve"/>
      <point x="42" y="55"/>
      <point x="242" y="-10"/>
      <point x="432" y="-10" type="curve"/>
    </contour>
    <contour>
      <point x="290" y="79"/>
      <point x="167" y="125"/>
      <point x="167" y="235" type="curve"/>
      <point x="167" y="338"/>
      <point x="297" y="391"/>
      <point x="432" y="391" type="curve" smooth="yes"/>
      <point x="576" y="391"/>
      <point x="698" y="338"/>
      <point x="698" y="235" type="curve"/>
      <point x="698" y="125"/>
      <point x="568" y="79"/>
      <point x="432" y="79" type="curve" smooth="yes"/>
    </contour>
    <contour>
      <point x="483" y="168"/>
      <point x="510" y="195"/>
      <point x="510" y="232" type="curve"/>
      <point x="510" y="273"/>
      <point x="483" y="299"/>
      <point x="431" y="299" type="curve"/>
      <point x="381" y="299"/>
      <point x="351" y="273"/>
      <point x="351" y="232" type="curve"/>
      <point x="351" y="195"/>
      <point x="381" y="168"/>
      <point x="431" y="168" type="curve"/>
    </contour>
  </outline>
</glyph>
<glyph name="seven" format="1">
  <advance width="706"/>
  <unicode hex="0037"/>
  <outline>
    <contour>
      <point x="203" y="63" type="line"/>
      <point x="274" y="-11" type="line"/>
      <point x="688" y="371" type="line"/>
      <point x="556" y="381" type="line"/>
    </contour>
    <contour>
      <point x="44" y="467" type="line"/>
      <point x="44" y="270" type="line"/>
      <point x="140" y="270" type="line"/>
      <point x="140" y="371" type="line"/>
      <point x="688" y="371" type="line"/>
      <point x="688" y="467" type="line"/>
    </contour>
  </outline>
</glyph>
<glyph name="at" format="1">
  <advance width="927"/>
  <unicode hex="0040"/>
  <outline>
    <contour>
      <point x="535" y="-138"/>
      <point x="623" y="-98"/>
      <point x="661" y="-70" type="curve"/>
      <point x="637" y="-19" type="line"/>
      <point x="600" y="-45"/>
      <point x="517" y="-85"/>
      <point x="391" y="-85" type="curve" smooth="yes"/>
      <point x="234" y="-85"/>
      <point x="112" y="7"/>
      <point x="112" y="161" type="curve" smooth="yes"/>
      <point x="112" y="317"/>
      <point x="264" y="453"/>
      <point x="481" y="453" type="curve" smooth="yes"/>
      <point x="702" y="453"/>
      <point x="816" y="327"/>
      <point x="816" y="197" type="curve" smooth="yes"/>
      <point x="816" y="129"/>
      <point x="784" y="84"/>
      <point x="741" y="84" type="curve" smooth="yes"/>
      <point x="701" y="84"/>
      <point x="690" y="110"/>
      <point x="690" y="148" type="curve" smooth="yes"/>
      <point x="690" y="187" type="line" smooth="yes"/>
      <point x="690" y="253"/>
      <point x="643" y="326"/>
      <point x="486" y="326" type="curve" smooth="yes"/>
      <point x="404" y="326"/>
      <point x="326" y="311"/>
      <point x="236" y="281" type="curve"/>
      <point x="250" y="208" type="line"/>
      <point x="332" y="235"/>
      <point x="405" y="249"/>
      <point x="467" y="249" type="curve" smooth="yes"/>
      <point x="559" y="249"/>
      <point x="598" y="213"/>
      <point x="598" y="191" type="curve" smooth="yes"/>
      <point x="598" y="138" type="line" smooth="yes"/>
      <point x="598" y="82"/>
      <point x="633" y="21"/>
      <point x="723" y="21" type="curve" smooth="yes"/>
      <point x="810" y="21"/>
      <point x="880" y="94"/>
      <point x="880" y="197" type="curve" smooth="yes"/>
      <point x="880" y="348"/>
      <point x="747" y="505"/>
      <point x="481" y="505" type="curve" smooth="yes"/>
      <point x="237" y="505"/>
      <point x="48" y="367"/>
      <point x="48" y="163" type="curve" smooth="yes"/>
      <point x="48" y="-49"/>
      <point x="213" y="-138"/>
      <point x="393" y="-138" type="curve" smooth="yes"/>
    </contour>
    <contour>
      <point x="445" y="21"/>
      <point x="540" y="39"/>
      <point x="611" y="81" type="curve"/>
      <point x="613" y="138" type="line"/>
      <point x="535" y="105"/>
      <point x="453" y="97"/>
      <point x="397" y="97" type="curve" smooth="yes"/>
      <point x="354" y="97"/>
      <point x="324" y="96"/>
      <point x="324" y="113" type="curve" smooth="yes"/>
      <point x="324" y="141"/>
      <point x="382" y="133"/>
      <point x="439" y="134" type="curve" smooth="yes"/>
      <point x="496" y="135"/>
      <point x="556" y="128"/>
      <point x="613" y="125" type="curve"/>
      <point x="613" y="185" type="line"/>
      <point x="556" y="192"/>
      <point x="486" y="201"/>
      <point x="413" y="201" type="curve" smooth="yes"/>
      <point x="313" y="201"/>
      <point x="218" y="183"/>
      <point x="218" y="108" type="curve" smooth="yes"/>
      <point x="218" y="45"/>
      <point x="287" y="21"/>
      <point x="370" y="21" type="curve" smooth="yes"/>
    </contour>
  </outline>
</glyph>
<glyph name="M" format="1">
  <advance width="1260"/>
  <unicode hex="004D"/>
  <outline>
    <contour>
      <point x="644" y="-1" type="line"/>
      <point x="670" y="81" type="line"/>
      <point x="352" y="520" type="line"/>
      <point x="207" y="520" type="line"/>
      <point x="595" y="-1" type="line"/>
    </contour>
    <contour>
      <point x="447" y="0" type="line"/>
      <point x="447" y="96" type="line"/>
      <point x="51" y="96" type="line"/>
      <point x="51" y="0" type="line"/>
    </contour>
    <contour>
      <point x="322" y="54" type="line"/>
      <point x="322" y="235" type="line"/>
      <point x="322" y="320"/>
      <point x="295" y="465"/>
      <point x="282" y="520" type="curve"/>
      <point x="207" y="520" type="line"/>
      <point x="207" y="54" type="line"/>
    </contour>
    <contour>
      <point x="319" y="424" type="line"/>
      <point x="319" y="520" type="line"/>
      <point x="51" y="520" type="line"/>
      <point x="51" y="424" type="line"/>
    </contour>
    <contour>
      <point x="1209" y="0" type="line"/>
      <point x="1209" y="96" type="line"/>
      <point x="809" y="96" type="line"/>
      <point x="809" y="0" type="line"/>
    </contour>
    <contour>
      <point x="662" y="-1" type="line"/>
      <point x="1051" y="520" type="line"/>
      <point x="909" y="520" type="line"/>
      <point x="596" y="81" type="line"/>
      <point x="617" y="-1" type="line"/>
    </contour>
    <contour>
      <point x="1055" y="54" type="line"/>
      <point x="1055" y="520" type="line"/>
      <point x="983" y="520" type="line"/>
      <point x="966" y="465"/>
      <point x="933" y="320"/>
      <point x="933" y="235" type="curve"/>
      <point x="933" y="54" type="line"/>
    </contour>
    <contour>
      <point x="1209" y="424" type="line"/>
      <point x="1209" y="520" type="line"/>
      <point x="937" y="520" type="line"/>
      <point x="937" y="424" type="line"/>
    </contour>
    <contour>
      <point x="632" y="502" type="move" name="top"/>
    </contour>
    <contour>
      <point x="633" y="8" type="move" name="bottom"/>
    </contour>
  </outline>
</glyph>
<glyph name="O" format="1">
  <advance width="917"/>
  <unicode hex="004F"/>
  <outline>
    <contour>
      <point x="700" y="-10"/>
      <point x="872" y="104"/>
      <point x="872" y="260" type="curve"/>
      <point x="872" y="415"/>
      <point x="700" y="530"/>
      <point x="459" y="530" type="curve"/>
      <point x="218" y="530"/>
      <point x="45" y="415"/>
      <point x="45" y="260" type="curve"/>
      <point x="45" y="104"/>
      <point x="218" y="-10"/>
      <point x="459" y="-10" type="curve"/>
    </contour>
    <contour>
      <point x="286" y="88"/>
      <point x="179" y="161"/>
      <point x="179" y="260" type="curve"/>
      <point x="179" y="357"/>
      <point x="286" y="432"/>
      <point x="458" y="432" type="curve"/>
      <point x="631" y="432"/>
      <point x="738" y="359"/>
      <point x="738" y="260" type="curve"/>
      <point x="738" y="163"/>
      <point x="631" y="88"/>
      <point x="458" y="88" type="curve"/>
    </contour>
    <contour>
      <point x="459" y="-10" type="move" name="bottom"/>
    </contour>
    <contour>
      <point x="510" y="-7" type="move" name="ogonek"/>
    </contour>
    <contour>
      <point x="458" y="530" type="move" name="top"/>
    </contour>
    <contour>
      <point x="892" y="490" type="move" name="topright"/>
    </contour>
    <contour>
      <point x="459" y="253" type="move" name="center"/>
    </contour>
  </outline>
</glyph>
<glyph name="V" format="1">
  <advance width="939"/>
  <unicode hex="0056"/>
  <outline>
    <contour>
      <point x="0" y="520" type="line"/>
      <point x="0" y="424" type="line"/>
      <point x="366" y="424" type="line"/>
      <point x="366" y="520" type="line"/>
    </contour>
    <contour>
      <point x="585" y="520" type="line"/>
      <point x="585" y="424" type="line"/>
      <point x="939" y="424" type="line"/>
      <point x="939" y="520" type="line"/>
    </contour>
    <contour>
      <point x="500" y="-10" type="line"/>
      <point x="860" y="507" type="line"/>
      <point x="738" y="507" type="line"/>
      <point x="483" y="120" type="line"/>
      <point x="225" y="507" type="line"/>
      <point x="71" y="507" type="line"/>
      <point x="433" y="-10" type="line"/>
    </contour>
    <contour>
      <point x="470" y="490" type="move" name="top"/>
    </contour>
    <contour>
      <point x="470" y="-10" type="move" name="bottom"/>
    </contour>
  </outline>
</glyph>
<glyph name="Z" format="1">
  <advance width="889"/>
  <unicode hex="005A"/>
  <outline>
    <contour>
      <point x="799" y="0" type="line"/>
      <point x="799" y="247" type="line"/>
      <point x="691" y="247" type="line"/>
      <point x="691" y="96" type="line"/>
      <point x="340" y="96" type="line"/>
      <point x="287" y="89" type="line"/>
      <point x="286" y="95" type="line"/>
      <point x="334" y="114" type="line"/>
      <point x="795" y="434" type="line"/>
      <point x="795" y="520" type="line"/>
      <point x="95" y="520" type="line"/>
      <point x="95" y="273" type="line"/>
      <point x="203" y="273" type="line"/>
      <point x="203" y="424" type="line"/>
      <point x="554" y="424" type="line"/>
      <point x="607" y="431" type="line"/>
      <point x="608" y="425" type="line"/>
      <point x="560" y="406" type="line" smooth="yes"/>
      <point x="98" y="86" type="line"/>
      <point x="98" y="0" type="line"/>
    </contour>
    <contour>
      <point x="456" y="520" type="move" name="top"/>
    </contour>
    <contour>
      <point x="456" y="0" type="move" name="bottom"/>
    </contour>
  </outline>
</glyph>
<glyph name="bracketleft" format="1">
  <advance width="401"/>
  <unicode hex="005B"/>
  <outline>
    <contour>
      <point x="131" y="-131" type="line"/>
      <point x="235" y="-131" type="line"/>
      <point x="235" y="649" type="line"/>
      <point x="131" y="649" type="line"/>
    </contour>
    <contour>
      <point x="163" y="553" type="line"/>
      <point x="417" y="553" type="line"/>
      <point x="417" y="649" type="line"/>
      <point x="163" y="649" type="line"/>
    </contour>
    <contour>
      <point x="163" y="-131" type="line"/>
      <point x="417" y="-131" type="line"/>
      <point x="417" y="-35" type="line"/>
      <point x="163" y="-35" type="line"/>
    </contour>
  </outline>
</glyph>
<glyph name="e" format="1">
  <advance width="747"/>
  <unicode hex="0065"/>
  <outline>
    <contour>
      <point x="520" y="-11"/>
      <point x="618" y="18"/>
      <point x="702" y="66" type="curve"/>
      <point x="658" y="142" type="line"/>
      <point x="579" y="99"/>
      <point x="500" y="78"/>
      <point x="381" y="80" type="curve" smooth="yes"/>
      <point x="253" y="82"/>
      <point x="164" y="120"/>
      <point x="164" y="179" type="curve" smooth="yes"/>
      <point x="164" y="250"/>
      <point x="287" y="279"/>
      <point x="410" y="279" type="curve" smooth="yes"/>
      <point x="507" y="279"/>
      <point x="562" y="263"/>
      <point x="562" y="235" type="curve" smooth="yes"/>
      <point x="562" y="208"/>
      <point x="510" y="200"/>
      <point x="435" y="200" type="curve" smooth="yes"/>
      <point x="356" y="200"/>
      <point x="230" y="209"/>
      <point x="134" y="244" type="curve"/>
      <point x="134" y="184" type="line"/>
      <point x="230" y="153"/>
      <point x="331" y="128"/>
      <point x="441" y="128" type="curve" smooth="yes"/>
      <point x="561" y="128"/>
      <point x="677" y="157"/>
      <point x="677" y="241" type="curve" smooth="yes"/>
      <point x="677" y="324"/>
      <point x="566" y="367"/>
      <point x="395" y="367" type="curve" smooth="yes"/>
      <point x="187" y="367"/>
      <point x="50" y="286"/>
      <point x="50" y="176" type="curve" smooth="yes"/>
      <point x="50" y="51"/>
      <point x="214" y="-11"/>
      <point x="390" y="-11" type="curve" smooth="yes"/>
    </contour>
    <contour>
      <point x="702" y="66" type="move" name="ogonek"/>
    </contour>
    <contour>
      <point x="409" y="-11" type="move" name="bottom"/>
    </contour>
    <contour>
      <point x="371" y="367" type="move" name="top"/>
    </contour>
  </outline>
</glyph>
<glyph name="h" format="1">
  <advance width="937"/>
  <unicode hex="0068"/>
  <outline>
    <contour>
      <point x="797" y="0" type="line"/>
      <point x="797" y="120" type="line" smooth="yes"/>
      <point x="797" y="239"/>
      <point x="747" y="366"/>
      <point x="569" y="366" type="curve" smooth="yes"/>
      <point x="435" y="366"/>
      <point x="326" y="269"/>
      <point x="246" y="184" type="curve"/>
      <point x="246" y="94" type="line"/>
      <point x="308" y="162"/>
      <point x="424" y="263"/>
      <point x="546" y="263" type="curve" smooth="yes"/>
      <point x="656" y="263"/>
      <point x="682" y="196"/>
      <point x="682" y="130" type="curve" smooth="yes"/>
      <point x="682" y="0" type="line"/>
    </contour>
    <contour>
      <point x="399" y="0" type="line"/>
      <point x="399" y="90" type="line"/>
      <point x="30" y="90" type="line"/>
      <point x="30" y="0" type="line"/>
    </contour>
    <contour>
      <point x="286" y="0" type="line"/>
      <point x="286" y="520" type="line"/>
      <point x="30" y="520" type="line"/>
      <point x="30" y="430" type="line"/>
      <point x="170" y="430" type="line"/>
      <point x="170" y="0" type="line"/>
    </contour>
    <contour>
      <point x="927" y="0" type="line"/>
      <point x="927" y="90" type="line"/>
      <point x="569" y="90" type="line"/>
      <point x="569" y="0" type="line"/>
    </contour>
    <contour>
      <point x="456" y="179" type="move" name="center"/>
    </contour>
    <contour>
      <point x="456" y="0" type="move" name="bottom"/>
    </contour>
    <contour>
      <point x="456" y="343" type="move" name="top"/>
    </contour>
  </outline>
</glyph>
<glyph name="i" format="1">
  <advance width="495"/>
  <unicode hex="0069"/>
  <outline>
    <contour>
      <point x="321" y="30" type="line"/>
      <point x="321" y="357" type="line"/>
      <point x="206" y="357" type="line"/>
      <point x="206" y="30" type="line"/>
    </contour>
    <contour>
      <point x="451" y="0" type="line"/>
      <point x="451" y="90" type="line"/>
      <point x="66" y="90" type="line"/>
      <point x="66" y="0" type="line"/>
    </contour>
    <contour>
      <point x="289" y="267" type="line"/>
      <point x="289" y="357" type="line"/>
      <point x="66" y="357" type="line"/>
      <point x="66" y="267" type="line"/>
    </contour>
    <contour>
      <point x="308" y="412"/>
      <point x="339" y="437"/>
      <point x="339" y="470" type="curve"/>
      <point x="339" y="505"/>
      <point x="308" y="530"/>
      <point x="257" y="530" type="curve"/>
      <point x="208" y="530"/>
      <point x="175" y="505"/>
      <point x="175" y="470" type="curve"/>
      <point x="175" y="437"/>
      <point x="208" y="412"/>
      <point x="257" y="412" type="curve"/>
    </contour>
    <contour>
      <point x="451" y="0" type="move" name="ogonek"/>
    </contour>
    <contour>
      <point x="227" y="0" type="move" name="bottom"/>
    </contour>
    <contour>
      <point x="237" y="357" type="move" name="top"/>
    </contour>
  </outline>
</glyph>
<glyph name="p" format="1">
  <advance width="922"/>
  <unicode hex="0070"/>
  <outline>
    <contour>
      <point x="742" y="-11"/>
      <point x="872" y="64"/>
      <point x="872" y="188" type="curve" smooth="yes"/>
      <point x="872" y="306"/>
      <point x="767" y="367"/>
      <point x="624" y="367" type="curve" smooth="yes"/>
      <point x="469" y="367"/>
      <point x="347" y="295"/>
      <point x="230" y="217" type="curve"/>
      <point x="230" y="138" type="line"/>
      <point x="358" y="221"/>
      <point x="499" y="270"/>
      <point x="603" y="270" type="curve" smooth="yes"/>
      <point x="699" y="270"/>
      <point x="752" y="238"/>
      <point x="752" y="182" type="curve" smooth="yes"/>
      <point x="752" y="125"/>
      <point x="683" y="84"/>
      <point x="571" y="84" type="curve" smooth="yes"/>
      <point x="456" y="84"/>
      <point x="322" y="108"/>
      <point x="236" y="145" type="curve"/>
      <point x="236" y="69" type="line"/>
      <point x="316" y="33"/>
      <point x="436" y="-11"/>
      <point x="587" y="-11" type="curve" smooth="yes"/>
    </contour>
    <contour>
      <point x="426" y="-165" type="line"/>
      <point x="426" y="-75" type="line"/>
      <point x="40" y="-75" type="line"/>
      <point x="40" y="-165" type="line"/>
    </contour>
    <contour>
      <point x="296" y="-138" type="line"/>
      <point x="296" y="357" type="line"/>
      <point x="180" y="357" type="line"/>
      <point x="180" y="-138" type="line"/>
    </contour>
    <contour>
      <point x="287" y="267" type="line"/>
      <point x="288" y="357" type="line"/>
      <point x="40" y="357" type="line"/>
      <point x="40" y="267" type="line"/>
    </contour>
    <contour>
      <point x="508" y="343" type="move" name="top"/>
    </contour>
    <contour>
      <point x="508" y="2" type="move" name="bottom"/>
    </contour>
  </outline>
</glyph>
<glyph name="braceright" format="1">
  <advance width="512"/>
  <unicode hex="007D"/>
  <outline>
    <contour>
      <point x="305" y="-155"/>
      <point x="406" y="-101"/>
      <point x="406" y="-8" type="curve" smooth="yes"/>
      <point x="406" y="107"/>
      <point x="233" y="118"/>
      <point x="233" y="164" type="curve" smooth="yes"/>
      <point x="233" y="206"/>
      <point x="279" y="213"/>
      <point x="359" y="213" type="curve" smooth="yes"/>
      <point x="427" y="213" type="line"/>
      <point x="427" y="297" type="line"/>
      <point x="359" y="297" type="line" smooth="yes"/>
      <point x="279" y="295"/>
      <point x="233" y="304"/>
      <point x="233" y="346" type="curve" smooth="yes"/>
      <point x="233" y="394"/>
      <point x="406" y="402"/>
      <point x="406" y="518" type="curve" smooth="yes"/>
      <point x="406" y="611"/>
      <point x="305" y="665"/>
      <point x="187" y="665" type="curve" smooth="yes"/>
      <point x="107" y="665"/>
      <point x="46" y="649"/>
      <point x="0" y="636" type="curve"/>
      <point x="32" y="547" type="line"/>
      <point x="68" y="557"/>
      <point x="115" y="568"/>
      <point x="162" y="568" type="curve" smooth="yes"/>
      <point x="225" y="568"/>
      <point x="295" y="553"/>
      <point x="295" y="508" type="curve" smooth="yes"/>
      <point x="295" y="446"/>
      <point x="130" y="456"/>
      <point x="130" y="357" type="curve" smooth="yes"/>
      <point x="130" y="281"/>
      <point x="220" y="250"/>
      <point x="320" y="250" type="curve"/>
      <point x="320" y="260" type="line"/>
      <point x="220" y="260"/>
      <point x="130" y="229"/>
      <point x="130" y="153" type="curve" smooth="yes"/>
      <point x="130" y="54"/>
      <point x="295" y="64"/>
      <point x="295" y="2" type="curve" smooth="yes"/>
      <point x="295" y="-43"/>
      <point x="225" y="-58"/>
      <point x="162" y="-58" type="curve" smooth="yes"/>
      <point x="115" y="-58"/>
      <point x="68" y="-45"/>
      <point x="32" y="-37" type="curve"/>
      <point x="0" y="-126" type="line"/>
      <point x="46" y="-138"/>
      <point x="107" y="-155"/>
      <point x="187" y="-155" type="curve" smooth="yes"/>
    </contour>
  </outline>
</glyph>
<glyph name="copyright" format="1">
  <advance width="954"/>
  <unicode hex="00A9"/>
  <outline>
    <contour>
      <point x="746" y="-165"/>
      <point x="906" y="-14"/>
      <point x="906" y="177" type="curve"/>
      <point x="906" y="368"/>
      <point x="746" y="519"/>
      <point x="477" y="519" type="curve"/>
      <point x="209" y="519"/>
      <point x="48" y="368"/>
      <point x="48" y="177" type="curve"/>
      <point x="48" y="-14"/>
      <point x="209" y="-165"/>
      <point x="477" y="-165" type="curve"/>
    </contour>
    <contour>
      <point x="585" y="13"/>
      <point x="668" y="48"/>
      <point x="720" y="76" type="curve"/>
      <point x="689" y="141" type="line"/>
      <point x="637" y="116"/>
      <point x="573" y="89"/>
      <point x="477" y="89" type="curve" smooth="yes"/>
      <point x="381" y="89"/>
      <point x="322" y="127"/>
      <point x="322" y="172" type="curve" smooth="yes"/>
      <point x="322" y="228"/>
      <point x="384" y="260"/>
      <point x="469" y="260" type="curve" smooth="yes"/>
      <point x="557" y="260"/>
      <point x="612" y="235"/>
      <point x="662" y="198" type="curve"/>
      <point x="718" y="203" type="line"/>
      <point x="718" y="338" type="line"/>
      <point x="646" y="338" type="line"/>
      <point x="646" y="266" type="line"/>
      <point x="678" y="256" type="line"/>
      <point x="628" y="295"/>
      <point x="554" y="334"/>
      <point x="450" y="333" type="curve" smooth="yes"/>
      <point x="332" y="333"/>
      <point x="226" y="277"/>
      <point x="226" y="172" type="curve" smooth="yes"/>
      <point x="226" y="78"/>
      <point x="323" y="13"/>
      <point x="469" y="13" type="curve" smooth="yes"/>
    </contour>
    <contour>
      <point x="244" y="-108"/>
      <point x="114" y="20"/>
      <point x="115" y="177" type="curve"/>
      <point x="114" y="334"/>
      <point x="244" y="462"/>
      <point x="477" y="462" type="curve"/>
      <point x="710" y="462"/>
      <point x="839" y="334"/>
      <point x="838" y="177" type="curve"/>
      <point x="839" y="20"/>
      <point x="710" y="-108"/>
      <point x="477" y="-108" type="curve"/>
    </contour>
  </outline>
</glyph>
<glyph name="guillemotleft" format="1">
  <advance width="891"/>
  <unicode hex="00AB"/>
  <outline>
    <contour>
      <point x="821" y="19" type="line"/>
      <point x="767" y="109"/>
      <point x="681" y="188"/>
      <point x="470" y="188" type="curve"/>
      <point x="470" y="182" type="line"/>
      <point x="680" y="182"/>
      <point x="766" y="261"/>
      <point x="820" y="352" type="curve"/>
      <point x="731" y="390" type="line"/>
      <point x="685" y="305"/>
      <point x="617" y="234"/>
      <point x="450" y="234" type="curve" smooth="yes"/>
      <point x="451" y="234" type="line"/>
      <point x="451" y="136" type="line"/>
      <point x="451" y="136" type="line" smooth="yes"/>
      <point x="619" y="136"/>
      <point x="686" y="65"/>
      <point x="733" y="-20" type="curve"/>
    </contour>
    <contour>
      <point x="471" y="19" type="line"/>
      <point x="412" y="114"/>
      <point x="331" y="188"/>
      <point x="90" y="188" type="curve"/>
      <point x="90" y="182" type="line"/>
      <point x="330" y="182"/>
      <point x="411" y="256"/>
      <point x="470" y="352" type="curve"/>
      <point x="381" y="390" type="line"/>
      <point x="330" y="300"/>
      <point x="257" y="234"/>
      <point x="70" y="234" type="curve" smooth="yes"/>
      <point x="61" y="234" type="line"/>
      <point x="61" y="136" type="line"/>
      <point x="71" y="136" type="line" smooth="yes"/>
      <point x="259" y="136"/>
      <point x="331" y="70"/>
      <point x="383" y="-20" type="curve"/>
    </contour>
  </outline>
</glyph>
<glyph name="paragraph" format="1">
  <advance width="917"/>
  <unicode hex="00B6"/>
  <outline>
    <contour>
      <point x="681" y="-192"/>
      <point x="817" y="-137"/>
      <point x="817" y="29" type="curve" smooth="yes"/>
      <point x="817" y="520" type="line"/>
      <point x="715" y="520" type="line"/>
      <point x="715" y="34" type="line" smooth="yes"/>
      <point x="715" y="-63"/>
      <point x="622" y="-91"/>
      <point x="557" y="-91" type="curve" smooth="yes"/>
      <point x="492" y="-91"/>
      <point x="402" y="-73"/>
      <point x="338" y="-52" type="curve"/>
      <point x="307" y="-148" type="line"/>
      <point x="378" y="-168"/>
      <point x="473" y="-192"/>
      <point x="567" y="-192" type="curve" smooth="yes"/>
    </contour>
    <contour>
      <point x="603" y="-145" type="line"/>
      <point x="603" y="390" type="line"/>
      <point x="500" y="473" type="line"/>
      <point x="500" y="-149" type="line"/>
    </contour>
    <contour>
      <point x="405" y="184"/>
      <point x="499" y="224"/>
      <point x="574" y="260" type="curve"/>
      <point x="574" y="346" type="line"/>
      <point x="496" y="310"/>
      <point x="412" y="280"/>
      <point x="300" y="281" type="curve" smooth="yes"/>
      <point x="222" y="283"/>
      <point x="148" y="297"/>
      <point x="148" y="355" type="curve" smooth="yes"/>
      <point x="148" y="403"/>
      <point x="230" y="435"/>
      <point x="311" y="434" type="curve" smooth="yes"/>
      <point x="485" y="433"/>
      <point x="675" y="337"/>
      <point x="775" y="240" type="curve"/>
      <point x="775" y="352" type="line"/>
      <point x="672" y="451"/>
      <point x="483" y="530"/>
      <point x="305" y="530" type="curve" smooth="yes"/>
      <point x="144" y="530"/>
      <point x="20" y="453"/>
      <point x="20" y="356" type="curve" smooth="yes"/>
      <point x="20" y="241"/>
      <point x="147" y="184"/>
      <point x="281" y="184" type="curve" smooth="yes"/>
    </contour>
  </outline>
</glyph>
<glyph name="Oslash" format="1">
  <advance width="917"/>
  <unicode hex="00D8"/>
  <outline>
    <contour>
      <point x="375" y="41" type="line"/>
      <point x="372" y="54" type="line"/>
      <point x="625" y="444" type="line"/>
      <point x="640" y="449" type="line"/>
      <point x="720" y="581" type="line"/>
      <point x="615" y="581" type="line"/>
      <point x="550" y="481" type="line"/>
      <point x="552" y="466" type="line"/>
      <point x="292" y="64" type="line"/>
      <point x="274" y="52" type="line"/>
      <point x="204" y="-59" type="line"/>
      <point x="309" y="-59" type="line"/>
    </contour>
    <component base="O"/>
  </outline>
</glyph>
<glyph name="oe" format="1">
  <advance width="1312"/>
  <unicode hex="0153"/>
  <outline>
    <contour>
      <point x="577" y="-11"/>
      <point x="721" y="60"/>
      <point x="721" y="179" type="curve"/>
      <point x="721" y="302"/>
      <point x="569" y="368"/>
      <point x="390" y="367" type="curve"/>
      <point x="208" y="367"/>
      <point x="50" y="302"/>
      <point x="50" y="179" type="curve"/>
      <point x="50" y="60"/>
      <point x="208" y="-11"/>
      <point x="390" y="-10" type="curve"/>
    </contour>
    <contour>
      <point x="269" y="80"/>
      <point x="169" y="113"/>
      <point x="169" y="179" type="curve"/>
      <point x="169" y="248"/>
      <point x="269" y="276"/>
      <point x="390" y="277" type="curve"/>
      <point x="511" y="277"/>
      <point x="612" y="248"/>
      <point x="612" y="179" type="curve"/>
      <point x="612" y="113"/>
      <point x="511" y="80"/>
      <point x="390" y="80" type="curve"/>
    </contour>
    <contour>
      <point x="1085" y="-11"/>
      <point x="1183" y="18"/>
      <point x="1267" y="66" type="curve"/>
      <point x="1223" y="142" type="line"/>
      <point x="1144" y="99"/>
      <point x="1065" y="78"/>
      <point x="946" y="80" type="curve" smooth="yes"/>
      <point x="818" y="82"/>
      <point x="729" y="117"/>
      <point x="729" y="176" type="curve" smooth="yes"/>
      <point x="729" y="247"/>
      <point x="852" y="279"/>
      <point x="975" y="279" type="curve" smooth="yes"/>
      <point x="1072" y="279"/>
      <point x="1127" y="263"/>
      <point x="1127" y="235" type="curve" smooth="yes"/>
      <point x="1127" y="208"/>
      <point x="1075" y="200"/>
      <point x="1000" y="200" type="curve" smooth="yes"/>
      <point x="921" y="200"/>
      <point x="795" y="209"/>
      <point x="699" y="244" type="curve"/>
      <point x="699" y="184" type="line"/>
      <point x="795" y="153"/>
      <point x="896" y="128"/>
      <point x="1006" y="128" type="curve" smooth="yes"/>
      <point x="1126" y="128"/>
      <point x="1242" y="157"/>
      <point x="1242" y="241" type="curve" smooth="yes"/>
      <point x="1242" y="324"/>
      <point x="1131" y="367"/>
      <point x="960" y="367" type="curve" smooth="yes"/>
      <point x="760" y="367"/>
      <point x="624" y="282"/>
      <point x="625" y="179" type="curve"/>
      <point x="625" y="176" type="line"/>
      <point x="625" y="51"/>
      <point x="779" y="-11"/>
      <point x="955" y="-11" type="curve" smooth="yes"/>
    </contour>
    <contour>
      <point x="666" y="2" type="move" name="bottom"/>
    </contour>
    <contour>
      <point x="1267" y="66" type="move" name="ogonek"/>
    </contour>
    <contour>
      <point x="666" y="357" type="move" name="top"/>
    </contour>
    <contour>
      <point x="1171" y="357" type="move" name="topright"/>
    </contour>
    <contour>
      <point x="666" y="179" type="move" name="center"/>
    </contour>
  </outline>
</glyph>
<glyph name="acutecomb" format="1">
  <advance width="497"/>
  <unicode hex="0301"/>
  <outline>
    <contour>
      <point x="366" y="759" type="line"/>
      <point x="420" y="671" type="line"/>
      <point x="104" y="567" type="line"/>
      <point x="78" y="613" type="line"/>
    </contour>
    <contour>
      <point x="256" y="520" type="move" name="_top"/>
    </contour>
  </outline>
</glyph>
<glyph name="hookabovecomb" format="1">
  <advance width="252"/>
  <unicode hex="0309"/>
  <outline>
    <contour>
      <point x="181" y="520" type="line"/>
      <point x="206" y="546"/>
      <point x="227" y="573"/>
      <point x="227" y="611" type="curve" smooth="yes"/>
      <point x="227" y="653"/>
      <point x="185" y="680"/>
      <point x="130" y="680" type="curve" smooth="yes"/>
      <point x="84" y="680"/>
      <point x="51" y="669"/>
      <point x="25" y="654" type="curve"/>
      <point x="45" y="593" type="line"/>
      <point x="64" y="605"/>
      <point x="89" y="614"/>
      <point x="116" y="614" type="curve" smooth="yes"/>
      <point x="145" y="614"/>
      <point x="159" y="600"/>
      <point x="159" y="585" type="curve" smooth="yes"/>
      <point x="159" y="567"/>
      <point x="150" y="552"/>
      <point x="139" y="534" type="curve"/>
    </contour>
    <contour>
      <point x="97" y="520" type="move" name="_hook"/>
    </contour>
  </outline>
</glyph>
<glyph name="uni0424" format="1">
  <advance width="930"/>
  <unicode hex="0424"/>
  <outline>
    <contour>
      <point x="730" y="48"/>
      <point x="885" y="105"/>
      <point x="885" y="241" type="curve" smooth="yes"/>
      <point x="885" y="364"/>
      <point x="730" y="433"/>
      <point x="466" y="433" type="curve" smooth="yes"/>
      <point x="201" y="433"/>
      <point x="46" y="364"/>
      <point x="46" y="241" type="curve" smooth="yes"/>
      <point x="46" y="105"/>
      <point x="201" y="48"/>
      <point x="466" y="48" type="curve" smooth="yes"/>
    </contour>
    <contour>
      <point x="667" y="-85" type="line" smooth="yes"/>
      <point x="667" y="11" type="line" smooth="yes"/>
      <point x="265" y="11" type="line" smooth="yes"/>
      <point x="265" y="-85" type="line" smooth="yes"/>
    </contour>
    <contour>
      <point x="265" y="122"/>
      <point x="173" y="162"/>
      <point x="173" y="241" type="curve" smooth="yes"/>
      <point x="173" y="307"/>
      <point x="265" y="359"/>
      <point x="465" y="359" type="curve" smooth="yes"/>
      <point x="665" y="359"/>
      <point x="757" y="307"/>
      <point x="757" y="241" type="curve" smooth="yes"/>
      <point x="757" y="162"/>
      <point x="665" y="122"/>
      <point x="465" y="122" type="curve" smooth="yes"/>
    </contour>
    <contour>
      <point x="525" y="-38" type="line" smooth="yes"/>
      <point x="525" y="504" type="line" smooth="yes"/>
      <point x="407" y="504" type="line" smooth="yes"/>
      <point x="407" y="-38" type="line" smooth="yes"/>
    </contour>
    <contour>
      <point x="667" y="464" type="line" smooth="yes"/>
      <point x="667" y="560" type="line" smooth="yes"/>
      <point x="265" y="560" type="line" smooth="yes"/>
      <point x="265" y="464" type="line" smooth="yes"/>
    </contour>
  </outline>
</glyph>
<glyph name="uni1E9E" format="1">
  <advance width="1025"/>
  <unicode hex="1E9E"/>
  <outline>
    <contour>
      <point x="512" y="0" type="line"/>
      <point x="512" y="137" type="line"/>
      <point x="459" y="131" type="line"/>
      <point x="552" y="44"/>
      <point x="636" y="-20"/>
      <point x="774" y="-20" type="curve" smooth="yes"/>
      <point x="883" y="-20"/>
      <point x="981" y="35"/>
      <point x="981" y="135" type="curve" smooth="yes"/>
      <point x="981" y="234"/>
      <point x="883" y="294"/>
      <point x="757" y="325" type="curve"/>
      <point x="952" y="476" type="line"/>
      <point x="888" y="550" type="line"/>
      <point x="540" y="287" type="line"/>
      <point x="801" y="237"/>
      <point x="853" y="187"/>
      <point x="853" y="143" type="curve" smooth="yes"/>
      <point x="853" y="102"/>
      <point x="816" y="74"/>
      <point x="757" y="74" type="curve" smooth="yes"/>
      <point x="677" y="74"/>
      <point x="564" y="117"/>
      <point x="478" y="213" type="curve"/>
      <point x="402" y="207" type="line"/>
      <point x="402" y="0" type="line"/>
    </contour>
    <contour>
      <point x="260" y="536"/>
      <point x="151" y="444"/>
      <point x="151" y="265" type="curve" smooth="yes"/>
      <point x="151" y="96" type="line"/>
      <point x="6" y="96" type="line"/>
      <point x="6" y="0" type="line"/>
      <point x="272" y="0" type="line"/>
      <point x="272" y="267" type="line" smooth="yes"/>
      <point x="272" y="374"/>
      <point x="335" y="434"/>
      <point x="437" y="434" type="curve" smooth="yes"/>
      <point x="566" y="434"/>
      <point x="666" y="358"/>
      <point x="724" y="312" type="curve"/>
      <point x="792" y="382" type="line"/>
      <point x="703" y="456"/>
      <point x="591" y="536"/>
      <point x="425" y="536" type="curve" smooth="yes"/>
    </contour>
  </outline>
</glyph>
<glyph name="emdash" format="1">
  <advance width="887"/>
  <unicode hex="2014"/>
  <outline>
    <contour>
      <point x="22" y="228" type="line"/>
      <point x="22" y="130" type="line"/>
      <point x="865" y="130" type="line"/>
      <point x="865" y="228" type="line"/>
    </contour>
  </outline>
</glyph>
<glyph name="quoteleft" format="1">
  <advance width="306"/>
  <unicode hex="2018"/>
  <outline>
    <contour>
      <point x="203" y="324"/>
      <point x="238" y="345"/>
      <point x="238" y="380" type="curve" smooth="yes"/>
      <point x="238" y="410"/>
      <point x="210" y="433"/>
      <point x="167" y="433" type="curve" smooth="yes"/>
      <point x="152" y="433"/>
      <point x="133" y="431"/>
      <point x="124" y="428" type="curve"/>
      <point x="128" y="466"/>
      <point x="176" y="506"/>
      <point x="217" y="544" type="curve"/>
      <point x="188" y="573" type="line"/>
      <point x="126" y="524"/>
      <point x="63" y="466"/>
      <point x="63" y="410" type="curve" smooth="yes"/>
      <point x="63" y="355"/>
      <point x="95" y="324"/>
      <point x="151" y="324" type="curve" smooth="yes"/>
    </contour>
  </outline>
</glyph>
<glyph name="quotedblbase" format="1">
  <advance width="524"/>
  <unicode hex="201E"/>
  <outline>
    <contour>
      <point x="397" y="-102"/>
      <point x="461" y="-43"/>
      <point x="461" y="12" type="curve" smooth="yes"/>
      <point x="461" y="67"/>
      <point x="428" y="98"/>
      <point x="373" y="98" type="curve" smooth="yes"/>
      <point x="321" y="98"/>
      <point x="286" y="77"/>
      <point x="286" y="42" type="curve" smooth="yes"/>
      <point x="286" y="11"/>
      <point x="314" y="-11"/>
      <point x="357" y="-11" type="curve" smooth="yes"/>
      <point x="372" y="-11"/>
      <point x="391" y="-9"/>
      <point x="400" y="-7" type="curve"/>
      <point x="396" y="-45"/>
      <point x="348" y="-84"/>
      <point x="306" y="-122" type="curve"/>
      <point x="335" y="-151" type="line"/>
    </contour>
    <contour>
      <point x="179" y="-99"/>
      <point x="243" y="-41"/>
      <point x="243" y="14" type="curve" smooth="yes"/>
      <point x="243" y="70"/>
      <point x="210" y="101"/>
      <point x="155" y="101" type="curve" smooth="yes"/>
      <point x="103" y="101"/>
      <point x="68" y="80"/>
      <point x="68" y="45" type="curve" smooth="yes"/>
      <point x="68" y="13"/>
      <point x="96" y="-9"/>
      <point x="139" y="-9" type="curve" smooth="yes"/>
      <point x="154" y="-9"/>
      <point x="173" y="-7"/>
      <point x="182" y="-5" type="curve"/>
      <point x="178" y="-42"/>
      <point x="130" y="-82"/>
      <point x="88" y="-119" type="curve"/>
      <point x="117" y="-148" type="line"/>
    </contour>
  </outline>
</glyph>
<glyph name="bullet" format="1">
  <advance width="436"/>
  <unicode hex="2022"/>
  <outline>
    <contour>
      <point x="311" y="138"/>
      <point x="366" y="183"/>
      <point x="366" y="244" type="curve"/>
      <point x="366" y="313"/>
      <point x="311" y="360"/>
      <point x="219" y="360" type="curve"/>
      <point x="133" y="360"/>
      <point x="71" y="313"/>
      <point x="71" y="244" type="curve"/>
      <point x="71" y="183"/>
      <point x="133" y="138"/>
      <point x="219" y="138" type="curve"/>
    </contour>
  </outline>
</glyph>
<glyph name="uni2120" format="1">
  <advance width="950"/>
  <unicode hex="2120"/>
  <outline>
    <contour>
      <point x="302" y="294"/>
      <point x="347" y="316"/>
      <point x="347" y="358" type="curve" smooth="yes"/>
      <point x="347" y="401"/>
      <point x="309" y="421"/>
      <point x="212" y="430" type="curve" smooth="yes"/>
      <point x="128" y="434"/>
      <point x="112" y="445"/>
      <point x="112" y="458" type="curve" smooth="yes"/>
      <point x="112" y="475"/>
      <point x="130" y="483"/>
      <point x="181" y="483" type="curve" smooth="yes"/>
      <point x="229" y="483"/>
      <point x="273" y="469"/>
      <point x="294" y="445" type="curve"/>
      <point x="330" y="446" type="line"/>
      <point x="330" y="520" type="line"/>
      <point x="286" y="520" type="line"/>
      <point x="286" y="460" type="line"/>
      <point x="310" y="470" type="line"/>
      <point x="275" y="503"/>
      <point x="228" y="524"/>
      <point x="168" y="524" type="curve" smooth="yes"/>
      <point x="94" y="524"/>
      <point x="55" y="498"/>
      <point x="55" y="457" type="curve" smooth="yes"/>
      <point x="55" y="426"/>
      <point x="68" y="393"/>
      <point x="171" y="385" type="curve" smooth="yes"/>
      <point x="270" y="379"/>
      <point x="291" y="369"/>
      <point x="291" y="354" type="curve" smooth="yes"/>
      <point x="291" y="339"/>
      <point x="270" y="333"/>
      <point x="235" y="333" type="curve" smooth="yes"/>
      <point x="184" y="333"/>
      <point x="127" y="345"/>
      <point x="95" y="375" type="curve"/>
      <point x="55" y="376" type="line"/>
      <point x="55" y="299" type="line"/>
      <point x="99" y="299" type="line"/>
      <point x="99" y="357" type="line"/>
      <point x="71" y="348" type="line"/>
      <point x="116" y="317"/>
      <point x="175" y="294"/>
      <point x="242" y="294" type="curve" smooth="yes"/>
    </contour>
    <contour>
      <point x="647" y="297" type="line"/>
      <point x="662" y="315" type="line"/>
      <point x="513" y="520" type="line"/>
      <point x="463" y="520" type="line"/>
      <point x="626" y="297" type="line"/>
    </contour>
    <contour>
      <point x="546" y="299" type="line"/>
      <point x="546" y="340" type="line"/>
      <point x="391" y="340" type="line"/>
      <point x="391" y="299" type="line"/>
    </contour>
    <contour>
      <point x="501" y="321" type="line"/>
      <point x="501" y="520" type="line"/>
      <point x="454" y="520" type="line"/>
      <point x="454" y="321" type="line"/>
    </contour>
    <contour>
      <point x="499" y="479" type="line"/>
      <point x="499" y="520" type="line"/>
      <point x="391" y="520" type="line"/>
      <point x="391" y="479" type="line"/>
    </contour>
    <contour>
      <point x="895" y="299" type="line"/>
      <point x="895" y="340" type="line"/>
      <point x="737" y="340" type="line"/>
      <point x="737" y="299" type="line"/>
    </contour>
    <contour>
      <point x="658" y="297" type="line"/>
      <point x="820" y="520" type="line"/>
      <point x="774" y="520" type="line"/>
      <point x="627" y="315" type="line"/>
      <point x="638" y="297" type="line"/>
    </contour>
    <contour>
      <point x="832" y="321" type="line"/>
      <point x="832" y="520" type="line"/>
      <point x="781" y="520" type="line"/>
      <point x="781" y="321" type="line"/>
    </contour>
    <contour>
      <point x="895" y="479" type="line"/>
      <point x="895" y="520" type="line"/>
      <point x="783" y="520" type="line"/>
      <point x="783" y="479" type="line"/>
    </contour>
  </outline>
</glyph>
<glyph name="trademark" format="1">
  <advance width="987"/>
  <unicode hex="2122"/>
  <outline>
    <contour>
      <point x="684" y="297" type="line"/>
      <point x="699" y="315" type="line"/>
      <point x="550" y="520" type="line"/>
      <point x="499" y="520" type="line"/>
      <point x="663" y="297" type="line"/>
    </contour>
    <contour>
      <point x="295" y="300" type="line"/>
      <point x="295" y="341" type="line"/>
      <point x="123" y="341" type="line"/>
      <point x="123" y="300" type="line"/>
    </contour>
    <contour>
      <point x="234" y="325" type="line"/>
      <point x="234" y="501" type="line"/>
      <point x="183" y="501" type="line"/>
      <point x="183" y="325" type="line"/>
    </contour>
    <contour>
      <point x="81" y="427" type="line"/>
      <point x="81" y="484" type="line"/>
      <point x="336" y="484" type="line"/>
      <point x="336" y="427" type="line"/>
      <point x="384" y="427" type="line"/>
      <point x="384" y="520" type="line"/>
      <point x="35" y="520" type="line"/>
      <point x="35" y="427" type="line"/>
    </contour>
    <contour>
      <point x="583" y="299" type="line"/>
      <point x="583" y="340" type="line"/>
      <point x="428" y="340" type="line"/>
      <point x="428" y="299" type="line"/>
    </contour>
    <contour>
      <point x="538" y="321" type="line"/>
      <point x="538" y="520" type="line"/>
      <point x="491" y="520" type="line"/>
      <point x="491" y="321" type="line"/>
    </contour>
    <contour>
      <point x="536" y="479" type="line"/>
      <point x="536" y="520" type="line"/>
      <point x="428" y="520" type="line"/>
      <point x="428" y="479" type="line"/>
    </contour>
    <contour>
      <point x="932" y="299" type="line"/>
      <point x="932" y="340" type="line"/>
      <point x="774" y="340" type="line"/>
      <point x="774" y="299" type="line"/>
    </contour>
    <contour>
      <point x="694" y="297" type="line"/>
      <point x="857" y="520" type="line"/>
      <point x="810" y="520" type="line"/>
      <point x="663" y="315" type="line"/>
      <point x="674" y="297" type="line"/>
    </contour>
    <contour>
      <point x="869" y="321" type="line"/>
      <point x="869" y="520" type="line"/>
      <point x="818" y="520" type="line"/>
      <point x="818" y="321" type="line"/>
    </contour>
    <contour>
      <point x="932" y="479" type="line"/>
      <point x="932" y="520" type="line"/>
      <point x="820" y="520" type="line"/>
      <point x="820" y="479" type="line"/>
    </contour>
  </outline>
</glyph>
<glyph name="A.alt" format="1">
  <advance width="1036"/>
  <outline>
    <contour>
      <point x="488" y="530" type="line"/>
      <point x="89" y="13" type="line"/>
      <point x="223" y="13" type="line"/>
      <point x="547" y="438" type="line"/>
      <point x="487" y="438" type="line"/>
      <point x="810" y="13" type="line"/>
      <point x="948" y="13" type="line"/>
      <point x="553" y="530" type="line"/>
    </contour>
    <contour>
      <point x="1036" y="0" type="line"/>
      <point x="1036" y="96" type="line"/>
      <point x="675" y="96" type="line"/>
      <point x="675" y="0" type="line"/>
    </contour>
    <contour>
      <point x="361" y="0" type="line"/>
      <point x="361" y="96" type="line"/>
      <point x="0" y="96" type="line"/>
      <point x="0" y="0" type="line"/>
    </contour>
    <contour>
      <point x="705" y="249" type="line"/>
      <point x="333" y="249" type="line"/>
      <point x="314" y="162" type="line"/>
      <point x="720" y="162" type="line"/>
    </contour>
    <contour>
      <point x="603" y="595" type="move" name="hook"/>
    </contour>
    <contour>
      <point x="1036" y="0" type="move" name="ogonek"/>
    </contour>
    <contour>
      <point x="519" y="530" type="move" name="top"/>
    </contour>
    <contour>
      <point x="520" y="0" type="move" name="bottom"/>
    </contour>
  </outline>
</glyph>
<glyph name="Q.alt" format="1">
  <advance width="913"/>
  <outline>
    <contour>
      <point x="1345" y="-320"/>
      <point x="1457" y="-260"/>
      <point x="1527" y="-212" type="curve"/>
      <point x="1481" y="-127" type="line"/>
      <point x="1415" y="-172"/>
      <point x="1330" y="-220"/>
      <point x="1195" y="-220" type="curve" smooth="yes"/>
      <point x="1049" y="-220"/>
      <point x="948" y="-145"/>
      <point x="790" y="18" type="curve" smooth="yes"/>
      <point x="640" y="181"/>
      <point x="530" y="296"/>
      <point x="231" y="296" type="curve" smooth="yes"/>
      <point x="117" y="296" type="line"/>
      <point x="117" y="209" type="line"/>
      <point x="234" y="209" type="line" smooth="yes"/>
      <point x="454" y="209"/>
      <point x="556" y="117"/>
      <point x="686" y="-25" type="curve" smooth="yes"/>
      <point x="879" y="-241"/>
      <point x="1002" y="-320"/>
      <point x="1195" y="-320" type="curve" smooth="yes"/>
    </contour>
    <contour>
      <point x="700" y="-10"/>
      <point x="872" y="104"/>
      <point x="872" y="260" type="curve"/>
      <point x="872" y="415"/>
      <point x="700" y="530"/>
      <point x="459" y="530" type="curve"/>
      <point x="218" y="530"/>
      <point x="45" y="415"/>
      <point x="45" y="260" type="curve"/>
      <point x="45" y="104"/>
      <point x="218" y="-10"/>
      <point x="459" y="-10" type="curve"/>
    </contour>
    <contour>
      <point x="283" y="88"/>
      <point x="175" y="161"/>
      <point x="175" y="260" type="curve"/>
      <point x="175" y="357"/>
      <point x="283" y="432"/>
      <point x="458" y="432" type="curve"/>
      <point x="634" y="432"/>
      <point x="742" y="359"/>
      <point x="742" y="260" type="curve"/>
      <point x="742" y="163"/>
      <point x="634" y="88"/>
      <point x="458" y="88" type="curve"/>
    </contour>
    <contour>
      <point x="457" y="530" type="move" name="top"/>
    </contour>
    <contour>
      <point x="457" y="-10" type="move" name="bottom"/>
    </contour>
  </outline>
</glyph>
<glyph name="two.dnom" format="1">
  <advance width="416"/>
  <outline>
    <contour>
      <point x="274" y="105" type="line" smooth="yes"/>
      <point x="331" y="126"/>
      <point x="369" y="146"/>
      <point x="369" y="192" type="curve" smooth="yes"/>
      <point x="369" y="246"/>
      <point x="311" y="282"/>
      <point x="221" y="282" type="curve" smooth="yes"/>
      <point x="146" y="282"/>
      <point x="79" y="256"/>
      <point x="26" y="216" type="curve"/>
      <point x="66" y="170" type="line"/>
      <point x="110" y="201"/>
      <point x="164" y="221"/>
      <point x="216" y="221" type="curve" smooth="yes"/>
      <point x="270" y="221"/>
      <point x="292" y="202"/>
      <point x="292" y="186" type="curve" smooth="yes"/>
      <point x="292" y="166"/>
      <point x="247" y="154"/>
      <point x="225" y="149" type="curve" smooth="yes"/>
      <point x="23" y="61" type="line"/>
      <point x="70" y="28" type="line"/>
    </contour>
    <contour>
      <point x="385" y="0" type="line"/>
      <point x="385" y="111" type="line"/>
      <point x="330" y="111" type="line"/>
      <point x="330" y="61" type="line"/>
      <point x="24" y="61" type="line"/>
      <point x="24" y="0" type="line"/>
    </contour>
  </outline>
</glyph>
